<svg xmlns="http://www.w3.org/2000/svg" viewBox="0 0 50 50" id="laptop-with-code"><path fill="#b7c5fd" d="M42.58408,33.68399l-12.81105,7.44497c-0.32873,0.19176-0.85833,0.19176-1.18706,0.00305L5.01837,27.52349       c-0.32873-0.18871-0.32873-0.49613,0-0.68789l12.81105-7.44495c0.32568-0.18871,0.85529-0.18871,1.18402,0l23.5676,13.60547       C42.90976,33.18788,42.9128,33.49529,42.58408,33.68399z"></path><path fill="#9aadfd" d="M24.95806,32.80642c0.16869,0.09739,0.1677,0.25606,0.0001,0.35345l-3.47985,2.02227       c-0.16759,0.09739-0.44152,0.09849-0.61021,0.0011l-6.8574-3.95912c-0.16869-0.09739-0.16769-0.25607-0.0001-0.35346       l3.47985-2.02227c0.16759-0.0974,0.44152-0.09849,0.61021-0.0011L24.95806,32.80642z"></path><path fill="#9aadfd" d="M42.82757,33.3431l-0.00305,1.24185c0,0.12175-0.08217,0.24654-0.24349,0.3409l-12.81105,7.44497       c-0.32873,0.18871-0.85833,0.18871-1.18706,0L5.01532,28.76534c-0.16435-0.09436-0.24654-0.21914-0.24654-0.34699       l0.00305-1.2388c0,0.1248,0.08217,0.24959,0.24654,0.34394l23.5676,13.60852c0.32873,0.18871,0.85833,0.18871,1.18706-0.00305       l12.81105-7.44497C42.74843,33.58964,42.82757,33.4679,42.82757,33.3431z"></path><polygon fill="#384e85" points="21.671 23.064 21.229 23.32 20.162 22.704 20.604 22.448"></polygon><polygon fill="#384e85" points="15.854 24.785 14.877 25.353 12.375 23.909 13.353 23.341"></polygon><polygon fill="#384e85" points="15.65 23.242 14.673 23.81 13.606 23.194 14.583 22.626"></polygon><polygon fill="#384e85" points="17.085 24.07 16.107 24.638 15.04 24.022 16.018 23.454"></polygon><polygon fill="#384e85" points="18.315 23.354 17.338 23.923 14.836 22.478 15.814 21.91"></polygon><polygon fill="#384e85" points="19.747 24.181 18.77 24.75 17.703 24.134 18.681 23.566"></polygon><polygon fill="#384e85" points="21.51 23.775 20.534 24.342 19.467 23.726 20.443 23.159"></polygon><polygon fill="#384e85" points="20.077 22.948 19.102 23.515 18.035 22.899 19.01 22.332"></polygon><polygon fill="#384e85" points="20.239 22.237 19.797 22.493 18.73 21.877 19.172 21.621"></polygon><polygon fill="#384e85" points="18.643 22.12 17.667 22.687 16.067 21.763 17.043 21.196"></polygon><polygon fill="#384e85" points="18.805 21.408 18.363 21.665 17.296 21.049 17.738 20.792"></polygon><polygon fill="#384e85" points="27.405 26.374 26.963 26.631 25.896 26.015 26.338 25.758"></polygon><polygon fill="#384e85" points="27.243 27.086 26.267 27.653 25.2 27.037 26.176 26.47"></polygon><polygon fill="#384e85" points="25.811 26.259 24.835 26.826 23.768 26.21 24.744 25.643"></polygon><polygon fill="#384e85" points="21.384 26.552 20.406 27.12 19.339 26.504 20.317 25.936"></polygon><polygon fill="#384e85" points="22.818 27.38 21.84 27.948 20.773 27.332 21.751 26.764"></polygon><polygon fill="#384e85" points="23.106 23.892 22.664 24.148 21.597 23.532 22.039 23.276"></polygon><polygon fill="#384e85" points="24.538 24.719 24.096 24.975 23.029 24.359 23.471 24.103"></polygon><polygon fill="#384e85" points="22.944 24.604 21.968 25.17 20.901 24.554 21.877 23.988"></polygon><polygon fill="#384e85" points="21.182 25.01 20.204 25.578 19.137 24.962 20.115 24.394"></polygon><polygon fill="#384e85" points="24.376 25.431 23.401 25.997 22.334 25.381 23.309 24.815"></polygon><polygon fill="#384e85" points="19.951 25.725 18.974 26.293 17.907 25.677 18.884 25.109"></polygon><polygon fill="#384e85" points="22.614 25.837 21.637 26.405 20.57 25.789 21.547 25.221"></polygon><polygon fill="#384e85" points="23.02 28.922 22.044 29.489 15.244 25.563 16.219 24.996"></polygon><polygon fill="#384e85" points="25.972 25.547 25.53 25.804 24.463 25.188 24.905 24.931"></polygon><polygon fill="#384e85" points="28.839 27.202 28.397 27.459 27.328 26.842 27.77 26.585"></polygon><polygon fill="#384e85" points="31.704 28.856 31.262 29.113 30.195 28.497 30.637 28.24"></polygon><polygon fill="#384e85" points="24.048 26.665 23.071 27.233 22.004 26.617 22.982 26.049"></polygon><polygon fill="#384e85" points="25.481 27.492 24.503 28.06 23.436 27.444 24.414 26.876"></polygon><polygon fill="#384e85" points="26.915 28.32 25.938 28.888 24.869 28.271 25.846 27.703"></polygon><polygon fill="#384e85" points="28.675 27.913 27.7 28.48 26.635 27.865 27.61 27.298"></polygon><polygon fill="#384e85" points="28.348 29.147 27.37 29.715 26.303 29.099 27.281 28.531"></polygon><polygon fill="#384e85" points="27.319 31.404 26.341 31.972 25.274 31.356 26.252 30.788"></polygon><polygon fill="#384e85" points="28.549 30.689 27.572 31.257 26.505 30.641 27.482 30.073"></polygon><polygon fill="#384e85" points="31.214 30.802 30.237 31.37 27.736 29.926 28.713 29.358"></polygon><polygon fill="#384e85" points="33.138 29.684 32.696 29.941 31.629 29.325 32.071 29.068"></polygon><polygon fill="#384e85" points="32.443 30.088 31.467 30.655 29.5 29.519 30.475 28.952"></polygon><polygon fill="#384e85" points="30.11 28.741 29.134 29.308 28.067 28.692 29.043 28.125"></polygon><polygon fill="#384e85" points="30.271 28.029 29.829 28.286 28.762 27.67 29.204 27.413"></polygon><polygon fill="#384e85" points="35.314 33.169 34.336 33.737 33.27 33.121 34.247 32.553"></polygon><polygon fill="#384e85" points="38.181 34.824 37.203 35.392 36.136 34.776 37.114 34.208"></polygon><polygon fill="#384e85" points="31.419 33.771 30.441 34.339 29.374 33.723 30.352 33.155"></polygon><polygon fill="#384e85" points="35.803 31.223 35.361 31.48 34.295 30.864 34.736 30.607"></polygon><polygon fill="#384e85" points="35.108 31.627 34.133 32.194 33.066 31.578 34.041 31.011"></polygon><polygon fill="#384e85" points="37.238 32.051 36.796 32.308 35.729 31.692 36.171 31.435"></polygon><polygon fill="#384e85" points="33.88 32.341 32.902 32.909 31.835 32.293 32.813 31.725"></polygon><polygon fill="#384e85" points="36.543 32.455 35.567 33.022 34.5 32.406 35.476 31.839"></polygon><polygon fill="#384e85" points="32.649 33.056 31.672 33.624 30.605 33.008 31.582 32.44"></polygon><polygon fill="#384e85" points="37.975 33.282 36.999 33.849 35.932 33.233 36.908 32.666"></polygon><polygon fill="#384e85" points="34.083 33.884 33.106 34.452 32.039 33.836 33.016 33.268"></polygon><polygon fill="#384e85" points="36.746 33.996 35.769 34.564 34.702 33.948 35.679 33.38"></polygon><polygon fill="#384e85" points="35.516 34.711 34.538 35.279 33.471 34.663 34.449 34.095"></polygon><polygon fill="#384e85" points="18.517 24.897 17.539 25.465 16.473 24.849 17.45 24.281"></polygon><polygon fill="#384e85" points="24.454 29.75 23.477 30.318 22.408 29.701 23.385 29.133"></polygon><polygon fill="#384e85" points="25.685 29.035 24.707 29.603 23.638 28.986 24.616 28.418"></polygon><polygon fill="#384e85" points="25.886 30.577 24.909 31.145 23.842 30.529 24.82 29.961"></polygon><polygon fill="#384e85" points="27.117 29.862 26.14 30.43 25.073 29.814 26.05 29.246"></polygon><polygon fill="#384e85" points="24.25 28.207 23.273 28.775 22.206 28.159 23.183 27.591"></polygon><polygon fill="#384e85" points="28.753 32.232 27.776 32.8 26.709 32.184 27.686 31.616"></polygon><polygon fill="#384e85" points="39.409 34.11 38.434 34.677 37.367 34.061 38.342 33.494"></polygon><polygon fill="#384e85" points="40.104 33.706 39.662 33.963 38.595 33.347 39.037 33.09"></polygon><polygon fill="#384e85" points="38.67 32.878 38.228 33.135 37.161 32.519 37.603 32.262"></polygon><polygon fill="#384e85" points="32.853 34.599 31.875 35.167 30.808 34.551 31.786 33.983"></polygon><polygon fill="#384e85" points="36.95 35.539 34.742 36.822 33.675 36.206 35.883 34.923"></polygon><polygon fill="#384e85" points="34.285 35.426 33.308 35.994 32.241 35.378 33.218 34.81"></polygon><path fill="#1b2a4f" d="M42.2873,14.8526c0.32841,0.18961,0.59378,0.64924,0.59271,1.02662L42.838,32.46009       c-0.00106,0.37515-0.26817,0.52959-0.59659,0.33998L19.01343,19.39065c-0.32841-0.18961-0.59378-0.65147-0.59271-1.02662       l0.04202-16.58087c0.00107-0.37738,0.26817-0.52959,0.59659-0.33998L42.2873,14.8526z"></path><path fill="#384e85" d="M43.50378,15.51782l-0.04262,16.58023c0,0.18566-0.06697,0.31959-0.17349,0.38047l-0.62298,0.36229       c0.10654-0.06086,0.1735-0.19478,0.1735-0.38047l0.04261-16.58021c0-0.37744-0.2648-0.83703-0.59353-1.02878L19.05919,1.44344       c-0.16437-0.09435-0.31351-0.10348-0.42308-0.04262l0.62298-0.36229c0.10652-0.06088,0.25871-0.05176,0.42306,0.0426       l23.2281,13.41095C43.23898,14.6808,43.50378,15.1404,43.50378,15.51782z"></path><polygon fill="#d9ddf6" points="42.042 15.677 42.001 31.695 19.259 18.566 19.3 2.548"></polygon><polygon fill="#aabafd" points="22.197 5.825 22.196 7.305 21.907 7.139 21.907 6.016 21.705 6.011 21.642 5.682 21.956 5.686"></polygon><polygon fill="#aabafd" points="23.121 9.37 23.121 10.851 22.832 10.685 22.832 9.562 22.63 9.557 22.567 9.228 22.88 9.231"></polygon><polygon fill="#aabafd" points="25.036 8.793 25.037 10.274 24.741 10.104 24.74 8.985 24.55 8.979 24.475 8.647 24.795 8.655"></polygon><path fill="#aabafd" d="M26.47738 10.69057c.13032.21181.19646.46444.19657.75045.00051.47614-.16802.6413-.47393.46576-.07416-.04282-.13807-.09892-.19083-.15712-.05091-.05607-.09067-.11317-.12118-.16279-.13216-.21501-.202-.47191-.20582-.76219-.00057-.45271.18099-.62955.47392-.46043C26.31093 10.45363 26.41639 10.59134 26.47738 10.69057zM26.14426 11.60144c.14925.0851.23414-.05686.23416-.38974-.00024-.24233-.04713-.4049-.09149-.47746-.00278-.0048-.00925-.01494-.02035-.02775-.01203-.01335-.02963-.02885-.05466-.0433-.10845-.06262-.23399.00467-.23418.39613.00027.23381.04994.39799.09615.47375C26.08128 11.54374 26.09976 11.57574 26.14426 11.60144M21.34135 10.1952c.13974.08068.25486.19513.34353.33919.08688.14191.13473.29437.13527.43018-.00073.25884-.17652.36433-.42847.4792l.46443.26707-.00079.27908-.9446-.5443.00064-.22475.14409-.06191c.33094-.13755.46861-.22557.46913-.41091-.00074-.06658-.0173-.11882-.03394-.14549-.02049-.03343-.06599-.07336-.12073-.10497-.00204-.00118-.0041-.00235-.00617-.00351-.08343-.04817-.16788-.06172-.25058-.04012l-.06133.01581-.11508-.34811.01951-.0058c.07805-.02002.20712-.02339.38047.0767C21.33828 10.19343 21.33981 10.1943 21.34135 10.1952zM23.27835 12.77202c.12939.21128.19553.46391.19565.74885.0005.4804-.16804.64876-.47302.47268-.07508-.04335-.13807-.09892-.19083-.15712-.05091-.05607-.09067-.11317-.12118-.16172-.13309-.21661-.20292-.47564-.20673-.77018.00035-.45217.18098-.62849.47391-.46043C23.11097 12.53348 23.21643 12.67119 23.27835 12.77202zM22.94428 13.68769c.14924.08616.23414-.05687.23416-.38974-.00024-.2434-.04621-.40544-.09057-.47693l-.02035-.02668c-.01481-.01709-.03333-.03205-.05558-.04489-.10753-.06208-.234.00467-.23418.39612.00027.23381.04994.39799.09708.47428C22.88131 13.62998 22.90071 13.66253 22.94428 13.68769"></path><polygon fill="#aabafd" points="24.86 11.795 24.86 13.27 24.564 13.099 24.564 11.983 24.373 11.985 24.298 11.642 24.619 11.656"></polygon><path fill="#aabafd" d="M26.47679 14.1748c.13032.21287.19645.46551.19657.75044-.00043.47987-.16804.64877-.47395.47215-.07416-.04282-.13807-.09892-.1899-.15659-.05091-.05606-.0916-.1137-.12117-.16171-.13403-.21608-.20292-.47564-.20673-.77018-.00057-.45271.18098-.62849.47299-.46097C26.30941 13.93733 26.41579 14.07557 26.47679 14.1748zM26.14364 15.09206c.14832.08457.23415-.05687.23416-.38974-.00024-.2434-.04713-.40596-.09057-.47692l-.02035-.02669c-.01574-.01762-.03426-.03259-.05651-.04543-.10753-.06208-.234.00467-.23325.39666-.00066.23328.04994.39799.09615.47375C26.07974 15.03383 26.10008 15.06691 26.14364 15.09206M22.63379 17.74944c.13031.21287.19645.46551.19657.75151.00051.47721-.16802.64237-.473.46629-.00187-.00105-.00373-.00212-.00559-.00319-.07174-.04142-.13288-.09664-.18431-.15233-.0509-.05713-.09159-.11477-.1221-.16438-.13309-.21553-.20293-.47245-.20675-.76272.00035-.45217.18376-.62688.47948-.45722C22.46918 17.51464 22.57371 17.65074 22.63379 17.74944zM22.30712 18.67151c.14739.0851.22765-.05741.22768-.39881-.00025-.23913-.04622-.40011-.08966-.47l-.02127-.02829c-.01481-.01708-.03334-.03098-.05559-.04383-.11031-.06369-.22843.00575-.22766.39242-.00068.23967.04806.40437.09428.47906C22.24137 18.61221 22.26077 18.64475 22.30712 18.67151M21.52147 14.13373c.13031.21287.19645.46551.19657.75257.00051.47615-.16802.64131-.473.46523-.07602-.04389-.13992-.09999-.19268-.15819-.05091-.05607-.0916-.1137-.12117-.16171-.13217-.21395-.20108-.47032-.20489-.76272.00035-.45217.18376-.62688.47948-.45721C21.35686 13.89893 21.4614 14.03503 21.52147 14.13373zM21.19481 15.0558c.14739.08403.22764-.05742.22769-.39987-.00025-.23914-.04622-.39905-.08966-.47l-.02128-.02722c-.01481-.01708-.03334-.03205-.05559-.0449-.10753-.06102-.23399.00254-.23416.38974.00026.237.04992.40224.09706.47854C21.12535 14.99329 21.1466 15.02797 21.19481 15.0558M24.42343 16.29463c.13032.2118.19553.46391.19564.75097.00051.4772-.16802.64237-.473.46629-.07601-.04388-.13992-.09999-.19268-.15819-.05091-.05606-.0916-.1137-.12117-.16171-.13217-.21501-.20015-.46977-.2049-.76272.00035-.45217.18377-.62688.47948-.45722C24.26024 16.06064 24.36285 16.19608 24.42343 16.29463zM24.09028 17.21188c.14832.08563.23415-.05793.23325-.3956.00067-.23754-.04622-.39904-.08966-.47-.01756-.02827-.04349-.05285-.07686-.07211-.10753-.06208-.23399.00254-.23416.38973.00025.23808.05085.40492.09706.48067.00631.00989.02583.04162.06725.06553C24.08818 17.2107 24.08922 17.2113 24.09028 17.21188M26.47727 17.27983c.12939.21127.19553.46391.19565.74991.00051.47615-.16802.64131-.473.46523-.00202-.00114-.00402-.00228-.00602-.00343-.07337-.04236-.13531-.09706-.18666-.15476-.05091-.055-.0916-.11263-.12117-.16171-.13217-.21395-.20108-.47032-.2049-.76272.00035-.45217.18191-.62795.47391-.45936C26.31134 17.04319 26.41578 17.17969 26.47727 17.27983zM26.1432 18.19549c.14924.08616.23414-.05793.23417-.39506-.00025-.23913-.04622-.40011-.08966-.47l-.02035-.02775c-.01574-.01656-.03427-.03152-.05651-.04436-.10753-.06208-.23399.00253-.23415.38867.00025.23913.05085.40491.09705.48174C26.08022 18.13886 26.09963 18.17034 26.1432 18.19549M28.36778 9.39741c.13032.21181.19553.46391.19565.74885.00053.46975-.17451.63862-.47949.46255-.07231-.04175-.13529-.09731-.18712-.15391-.05091-.05713-.09252-.11637-.12303-.16492-.13216-.21607-.20198-.4783-.20211-.76111.00035-.45111.18191-.62689.47391-.45936C28.20039 9.15887 28.30585 9.29657 28.36778 9.39741zM28.03372 10.30668c.14924.08617.23414-.0558.23416-.38974.00068-.23967-.04714-.40277-.09151-.47533l-.0222-.02989c-.01574-.01656-.03519-.03206-.05837-.04544-.11402-.06583-.2285.03238-.22861.39827.00026.23595.04901.39852.0943.47268C27.96796 10.24737 27.9883 10.28045 28.03372 10.30668M29.61821 13.09286c.13032.21181.19646.46445.19657.75045-.0004.46815-.17544.63702-.47949.46255-.07323-.04228-.13621-.09785-.18805-.15551-.05091-.05606-.0916-.1137-.1221-.16332-.13217-.21501-.20477-.47885-.2086-.76486.00035-.45217.18377-.62688.47947-.45615C29.45082 12.85539 29.55629 12.99203 29.61821 13.09286zM29.28508 14.00267c.14647.08456.22764-.05528.22767-.39242-.00006-.30731-.06745-.44118-.08871-.47586-.01663-.02774-.04349-.05285-.07779-.07265-.1131-.06423-.22851.03237-.22769.3988-.00067.23541.04808.39905.09337.47214C29.2184 13.9439 29.23873 13.97591 29.28508 14.00267M31.04774 11.26049c.13032.21074.19553.46284.19565.74885.00052.46975-.17451.63863-.47949.46255-.07231-.04175-.13529-.09731-.18712-.15391-.05091-.05713-.09252-.1153-.1221-.16438-.13309-.21448-.20477-.47884-.2086-.7638-.00058-.4527.18376-.62688.47948-.45721C30.88035 11.02195 30.98581 11.15966 31.04774 11.26049zM30.71368 12.16976c.14553.08295.22858-.06008.22859-.39295-.00024-.24233-.04713-.40491-.09149-.47746-.00278-.0048-.00924-.01494-.02035-.02668-.01204-.01335-.02963-.02991-.05466-.04436-.13905-.07922-.22863.07712-.22861.39934.00026.23594.04901.39852.0943.47268C30.64792 12.11045 30.66733 12.143 30.71368 12.16976"></path><polygon fill="#aabafd" points="32.436 13.711 32.437 15.191 32.147 15.024 32.147 13.902 31.946 13.897 31.881 13.568 32.195 13.573"></polygon><polygon fill="#aabafd" points="33.865 12.32 33.865 13.801 33.575 13.634 33.574 12.511 33.373 12.506 33.31 12.177 33.624 12.181"></polygon><polygon fill="#aabafd" points="35.281 14.91 35.281 16.39 34.992 16.224 34.991 15.101 34.79 15.096 34.727 14.767 35.041 14.771"></polygon><polygon fill="#aabafd" points="37.857 15.672 37.857 17.153 37.562 16.983 37.562 15.864 37.371 15.858 37.296 15.526 37.617 15.534"></polygon><polygon fill="#aabafd" points="39.679 19.37 39.68 20.851 39.384 20.68 39.384 19.561 39.193 19.557 39.118 19.224 39.438 19.231"></polygon><path fill="#aabafd" d="M40.69403 16.18716c.13032.21181.19645.46444.19657.75044.00051.47614-.16802.6413-.473.46522-.00189-.00106-.00378-.00215-.00566-.00323-.07265-.04194-.13464-.09767-.18517-.15389-.05091-.05606-.0916-.1137-.1221-.16225-.13217-.21501-.20201-.47192-.20582-.76325.00035-.45217.18098-.62849.47392-.46043C40.52757 15.94916 40.63303 16.08686 40.69403 16.18716zM40.3609 17.09697c.14924.08616.23415-.0558.23416-.38867-.00024-.24339-.04713-.40597-.0915-.47746-.00277-.00587-.00924-.016-.02035-.02775-.01203-.01335-.02962-.02884-.05466-.04329-.10845-.06262-.23399.0036-.23417.39506.00027.23381.04994.39799.09708.47428C40.29792 17.04033 40.31733 17.07181 40.3609 17.09697M28.54831 16.45906c.12939.21127.19553.46391.19565.74991.0005.4804-.16804.6477-.47302.47269-.07508-.04335-.13899-.10052-.19175-.15872-.05276-.05713-.09345-.11583-.12395-.16545-.13494-.21981-.20292-.47671-.20303-.76591.00035-.45217.18191-.62795.47391-.45936C28.38235 16.2224 28.48681 16.35997 28.54831 16.45906zM28.21424 17.37472c.14924.08616.23414-.0558.23416-.38867-.00024-.2434-.04621-.40544-.08964-.47639l-.02127-.02829c-.01481-.01708-.03334-.03099-.05559-.04383-.10753-.06208-.234.00467-.23417.39506.00026.23381.04994.39799.09708.47428C28.15126 17.31808 28.17067 17.34956 28.21424 17.37472"></path><polygon fill="#aabafd" points="30.13 15.484 30.13 16.957 29.834 16.788 29.834 15.671 29.642 15.672 29.568 15.33 29.889 15.344"></polygon><polygon fill="#aabafd" points="28.04 13.325 28.04 14.799 27.745 14.629 27.745 13.514 27.554 13.514 27.479 13.172 27.8 13.187"></polygon><path fill="#aabafd" d="M31.74675 17.8629c.13032.21181.19646.46445.19658.75045-.00043.47987-.16804.6477-.47395.47108-.00197-.00111-.00393-.00222-.00588-.00335-.07166-.04137-.13357-.09603-.18402-.15217-.05091-.05606-.0916-.1137-.12117-.16278-.13309-.21554-.20293-.47458-.20673-.77018-.00058-.45271.18098-.62848.47298-.4599C31.58171 17.62678 31.68617 17.76435 31.74675 17.8629zM31.41361 18.77909c.14832.08563.23414-.0558.23416-.38867-.00024-.2434-.04713-.40597-.09057-.47693l-.02035-.02776c-.01573-.01762-.03426-.03152-.05558-.04383-.10846-.06262-.234.00467-.23417.39506.00026.23381.04994.39799.09615.47374C31.3497 18.72193 31.37004 18.75394 31.41361 18.77909M33.01002 16.69098c.13886.08018.25488.19514.34356.3392.08688.14191.13473.29437.13435.42965.00019.25937-.17652.36433-.42847.4792l.46442.26707-.00079.27908-.94368-.54377-.00029-.22529.1441-.06191c.33094-.13754.46953-.22504.46913-.41091.00019-.06604-.01731-.11775-.03394-.14549-.02055-.03248-.06621-.07348-.12113-.10519-.00191-.0011-.00384-.0022-.00577-.00328-.08343-.04817-.16788-.06172-.25058-.04012l-.06041.0174-.116-.34971.02044-.0042c.07713-.02162.2062-.02498.38047.07563C33.00697 16.68922 33.00848 16.69009 33.01002 16.69098zM35.90595 21.64589c.14183.08189.2585.19619.34815.34291.08688.14191.13472.29437.13434.42965.00019.25937-.17652.36433-.42754.47867l.4635.26653.00013.27961-.94461-.54323-.00029-.22529.14502-.06137c.33001-.13915.46861-.22664.4682-.41145.00019-.06604-.0173-.11882-.03394-.14549-.02125-.03468-.06849-.07582-.12597-.109-.08343-.04817-.16789-.06066-.25059-.03905l-.06133.0158-.11507-.34811.01951-.00581C35.60353 21.55024 35.7326 21.54688 35.90595 21.64589zM34.94612 19.26728c.13032.21181.19553.4639.19565.74884.0005.4804-.16804.6477-.47302.47268-.07508-.04335-.13807-.09892-.19083-.15711-.05091-.05607-.09068-.11317-.12118-.16172-.13309-.2166-.20292-.47564-.20673-.77018.00035-.45217.18191-.62795.47392-.46043C34.77874 19.02875 34.8842 19.16645 34.94612 19.26728zM34.61205 20.18294c.14925.0851.23415-.05686.23416-.38973-.00024-.2434-.0462-.40544-.08964-.47639l-.02128-.02722c-.01481-.01708-.03334-.03205-.05558-.04489-.10754-.06102-.234.00467-.23418.39612.00027.23381.04994.39799.09708.47429C34.54907 20.12525 34.56848 20.15779 34.61205 20.18294"></path><polygon fill="#aabafd" points="36.527 18.291 36.528 19.765 36.232 19.595 36.232 18.478 36.04 18.48 35.966 18.138 36.286 18.152"></polygon><path fill="#aabafd" d="M38.14456 20.67006c.13032.21287.19645.46551.19657.75045-.00043.48093-.16804.64876-.47395.47215-.07416-.04282-.13807-.09892-.1899-.15658-.05091-.05606-.0916-.1137-.12117-.16171-.13309-.21554-.20292-.47565-.20673-.77018-.00058-.45271.18098-.62849.47298-.46097C37.9781 20.43313 38.08356 20.57083 38.14456 20.67006zM37.81141 21.58733c.14832.08457.23415-.05687.23416-.38974-.00024-.24339-.04713-.40597-.09057-.47692l-.02035-.02669c-.01574-.01762-.03426-.03258-.05559-.0449-.10845-.06262-.23399.00467-.23417.39613.00026.23381.04994.39799.09615.47375C37.74751 21.52909 37.76785 21.56217 37.81141 21.58733M26.96483 20.52524c.13032.2118.19552.4639.19564.7499.00051.47614-.16987.64023-.47949.46255-.07323-.04228-.13714-.09838-.18897-.15605-.05184-.0566-.09253-.1153-.1221-.16438-.13309-.21661-.20108-.47245-.20119-.75951.00035-.45217.18191-.62795.47391-.45936C26.79886 20.28857 26.90332 20.42615 26.96483 20.52524zM26.63075 21.44089c.14924.08616.23507-.05739.23417-.39506-.00008-.29878-.06841-.43426-.08967-.46787-.01848-.03094-.04626-.05658-.08242-.07746-.10568-.06101-.22843.00575-.2286.39295.00025.23913.04899.40491.09428.478C26.56499 21.38266 26.58533 21.41467 26.63075 21.44089M29.612 21.50732c.13032.21181.19646.46444.19657.74938-.00042.47561-.16987.6413-.47949.46254-.07416-.04282-.13714-.09838-.1899-.15658-.05091-.05606-.0916-.1137-.1221-.16331-.13309-.21554-.20201-.47192-.20675-.76272.00035-.45217.18377-.62688.48041-.45668C29.44554 21.26931 29.551 21.40701 29.612 21.50732zM29.27885 22.42351c.14739.08403.22857-.05688.22769-.39987-.00007-.30305-.06655-.43425-.08688-.46839l-.02035-.02668c-.01574-.01762-.03519-.03312-.0593-.04704-.10475-.06048-.2275.00628-.22767.39348.00025.2402.04899.40491.09428.47907C29.2131 22.36421 29.2325 22.39675 29.27885 22.42351M31.54964 22.24152c.13031.21287.19646.46444.19657.75044-.00042.47668-.1708.6397-.47949.46255-.07416-.04282-.13714-.09838-.1899-.15658-.05091-.05606-.09159-.11476-.1221-.16331-.13309-.21554-.20293-.47351-.20675-.76272.00035-.45217.18376-.62795.47948-.45722C31.38368 22.00486 31.48905 22.14297 31.54964 22.24152zM31.21649 23.15772c.14739.08509.22764-.05742.22768-.39881.00068-.2386-.04622-.39904-.08966-.47l-.02035-.02775c-.01573-.01655-.03426-.03152-.05651-.04437-.11031-.06369-.22843.00575-.22767.39348.00025.2402.04899.40385.09428.47907C31.15073 23.09948 31.17014 23.13095 31.21649 23.15772"></path><polygon fill="#aabafd" points="32.436 19.916 32.437 21.391 32.148 21.224 32.147 20.104 31.946 20.105 31.882 19.767 32.195 19.778"></polygon><path fill="#aabafd" d="M33.80699 23.79914c.13032.21287.19553.46497.19564.75097.0005.47721-.16803.64237-.47301.46629-.00196-.0011-.00392-.00222-.00587-.00335-.07161-.04135-.13267-.09551-.18402-.15216-.05091-.05607-.09159-.11477-.1221-.16332-.13309-.2166-.20293-.47351-.20675-.76378.00035-.45217.18377-.62688.47947-.45615C33.6438 23.56621 33.74641 23.70164 33.80699 23.79914zM33.4794 24.72066c.14739.0851.22858-.05688.22769-.3988.00068-.2386-.04622-.40011-.08966-.47l-.02035-.02775c-.01574-.01656-.03426-.03152-.05651-.04437-.11031-.06369-.22843.00575-.22767.39241.00025.2402.04807.40438.09428.47907C33.41365 24.66243 33.43305 24.69391 33.4794 24.72066M35.90356 25.25807c.13032.21288.19646.46551.19657.75258-.00042.47561-.16802.6413-.47393.46576-.07508-.04335-.13992-.10105-.19267-.15926-.05091-.05607-.09068-.11317-.12118-.16172-.13124-.21341-.20015-.46978-.20396-.76218-.00057-.45271.18376-.62689.47947-.45722C35.73896 25.02327 35.84257 25.15884 35.90356 25.25807zM35.57598 26.17961c.14739.08403.22857-.05688.22861-.39827-.00025-.23913-.04622-.4001-.08966-.47l-.02128-.02829c-.0148-.01708-.03426-.03152-.05558-.04383-.10846-.06262-.23399.00147-.23415.38867.00026.23701.04993.40225.09706.47854C35.50744 26.11763 35.5287 26.15231 35.57598 26.17961M40.91594 28.43727c.13032.21287.19645.46551.19656.75257-.00042.47561-.16802.64131-.47393.46576-.07601-.04388-.13992-.09999-.19268-.15819-.05091-.05713-.09068-.11316-.12118-.16278-.13124-.21341-.20015-.46978-.20396-.76219-.00058-.45271.18283-.62741.47947-.45615C40.75275 28.20434 40.85536 28.33978 40.91594 28.43727zM40.58279 29.35559c.14832.08563.23415-.05793.23417-.39506-.00025-.23913-.04622-.40011-.08966-.47-.01756-.02828-.04349-.05285-.07686-.07212-.10845-.06262-.23492.002-.23415.38867.00025.23807.04992.40438.09706.48067C40.51981 29.29896 40.53922 29.33044 40.58279 29.35559M39.55898 25.35627c.13032.21181.19646.46444.19658.75044-.00042.47561-.16802.6413-.47393.46469-.00191-.00107-.00383-.00217-.00573-.00327-.07351-.04244-.13552-.09819-.18695-.15492-.05091-.055-.09068-.11317-.12117-.16172-.13124-.21341-.20016-.46978-.20396-.76218-.00058-.45271.18098-.62849.47391-.45936C39.39398 25.12016 39.49841 25.25666 39.55898 25.35627zM39.22585 26.27246c.14924.08617.23414-.05792.23417-.39507-.00024-.23913-.04622-.4001-.08966-.47l-.02128-.02829c-.01481-.01709-.03427-.03152-.05558-.04383-.10846-.06262-.23399.00254-.23416.38867.00026.23807.04992.40438.09706.48068C39.16287 26.21477 39.18227 26.2473 39.22585 26.27246"></path><g><polygon fill="#384e85" points="38.293 36.545 38.295 37.121 39.52 36.414 39.518 35.838"></polygon></g><g><polygon fill="#384e85" points="40.5 35.271 40.501 35.847 41.726 35.14 41.725 34.564"></polygon></g><g><path fill="#384e85" d="M37.09007,45.11707l-0.17049-0.29274l7.90591-4.59427c0.05022-0.02874,0.0674-0.05617,0.0674-0.0641     c0-0.00859-0.01784-0.03767-0.06939-0.06806l-6.0445-3.48943l0.16917-0.29274l6.04516,3.48976     c0.15199,0.08822,0.23789,0.22005,0.23789,0.36146c-0.00066,0.14042-0.08657,0.27027-0.23591,0.35617L37.09007,45.11707z"></path></g><g><path fill="#d9ddf6" d="M39.03005,43.75431c-1.16285-0.66639-2.7961-0.83914-4.05831-0.33761       c-0.25606,0.10174-0.47832,0.26933-0.68525,0.45126c-0.54656,0.48052-1.55189,1.01761-2.91469,1.59881       c-1.29353,0.74963-0.83786,1.71242,0.46303,2.46945c0.56959,0.32705,1.20719,0.56223,1.85303,0.66052       c0.82775,0.12598,1.58793-0.38469,1.93201-1.14801c0.19068-0.42301,0.65536-0.84105,1.57955-1.19793       c0.71708-0.27688,1.4268-0.47704,1.86766-0.33808c0.43406,0.13683,0.91706-0.06195,1.02638-0.50373       C40.2349,44.83751,39.84582,44.23015,39.03005,43.75431z"></path><path fill="#aabafd" d="M40.12126 45.1871c-.00087.07431-.00961.14841-.02779.2219-.10932.44178-.59232.64055-1.02638.50373-.44086-.13896-1.15058.0612-1.86766.33808-.92419.35688-1.38887.77492-1.57955 1.19793-.34409.76332-1.10427 1.27399-1.93201 1.14801-.64585-.0983-1.28345-.33347-1.85303-.66052-.7607-.44268-1.22868-.95559-1.2306-1.45522-.00043-.00231-.00412-.00396-.00412-.00635v.35622c0 .49976.47039 1.01424 1.23473 1.45523 1.30825.75699 2.96921 1.0142 4.2701.26458l3.14563-1.83004c.59533-.34544.86724-.76438.87461-1.19062v-.34892C40.12516 45.18298 40.12164 45.18518 40.12126 45.1871zM37.77395 44.2956c-.16143-.09417-.38678-.08072-.63397.06222-.36156.20853-.67099.63399-.81224 1.07122l-.47422-.27579c.14126-.43724.45068-.86269.81224-1.07121.24888-.14295.47255-.15639.63398-.06222L37.77395 44.2956z"></path><path fill="#9aadfd" d="M37.14035,44.35719c0.36075-0.20828,0.67175-0.14068,0.81448,0.13281l-1.62661,0.93913        C36.46893,44.99199,36.77852,44.56609,37.14035,44.35719z"></path></g></svg>